<?xml version="1.0" standalone="no"?>
<!DOCTYPE svg PUBLIC "-//W3C//DTD SVG 20010904//EN"
 "http://www.w3.org/TR/2001/REC-SVG-20010904/DTD/svg10.dtd">
<svg version="1.0" xmlns="http://www.w3.org/2000/svg"
 width="512.000000pt" height="512.000000pt" viewBox="0 0 512.000000 512.000000"
 preserveAspectRatio="xMidYMid meet">
<metadata>
Created by potrace 1.14, written by Peter Selinger 2001-2017
</metadata>
<g transform="translate(0.000000,512.000000) scale(0.100000,-0.100000)"
fill="#000000" stroke="none">
<path d="M2389 5116 c-2 -2 -40 -6 -84 -10 -44 -3 -91 -8 -105 -11 -14 -3 -41
-8 -60 -11 -19 -2 -57 -9 -85 -15 -27 -6 -61 -13 -75 -15 -114 -22 -364 -109
-507 -176 -127 -60 -338 -184 -408 -240 -5 -4 -44 -34 -84 -65 -102 -78 -242
-209 -336 -314 -86 -95 -220 -278 -273 -370 -78 -136 -94 -165 -108 -197 -10
-20 -32 -68 -49 -107 -84 -182 -172 -491 -191 -669 -2 -23 -7 -68 -11 -101 -4
-33 -7 -143 -7 -245 0 -195 7 -303 28 -430 4 -19 9 -51 12 -70 3 -19 8 -42 11
-50 3 -8 8 -26 10 -40 5 -35 42 -171 53 -195 5 -11 14 -38 21 -60 6 -22 15
-44 20 -50 5 -5 9 -17 9 -26 0 -25 59 -154 150 -329 23 -43 139 -227 160 -253
5 -7 45 -57 89 -112 107 -136 197 -229 212 -219 8 4 9 3 5 -4 -7 -11 -1 -19
73 -85 102 -91 328 -257 351 -257 5 0 10 -4 10 -9 0 -5 8 -12 18 -15 9 -3 40
-20 67 -36 58 -35 152 -80 164 -80 5 0 11 -4 13 -8 4 -11 209 -92 328 -130 88
-28 291 -73 385 -86 215 -30 588 -28 757 4 29 6 69 13 88 16 114 17 374 94
480 142 19 8 37 16 40 17 116 40 500 261 500 287 0 4 5 8 11 8 20 0 187 139
288 241 153 154 245 266 353 434 53 82 150 256 154 275 0 3 16 37 34 75 82
175 156 420 186 620 2 11 6 36 9 55 31 193 24 653 -11 790 -4 14 -8 34 -9 45
-10 86 -95 386 -117 413 -6 6 -8 12 -5 12 7 0 -49 132 -97 230 -53 109 -129
240 -138 240 -4 0 -8 5 -8 11 0 23 -150 224 -245 328 -51 56 -173 178 -211
211 -102 89 -351 270 -371 270 -3 0 -14 6 -22 14 -43 38 -384 194 -481 220
-14 4 -34 11 -45 16 -20 9 -96 31 -125 36 -8 1 -44 10 -80 19 -35 9 -80 18
-100 21 -19 3 -41 7 -48 9 -7 3 -40 7 -75 10 -34 4 -69 9 -77 12 -16 5 -435
14 -441 9z"/>
</g>
</svg>
